<?xml version="1.0" encoding="UTF-8" standalone="no"?>
<!-- Created with Inkscape (http://www.inkscape.org/) -->

<svg
   xmlns:dc="http://purl.org/dc/elements/1.1/"
   xmlns:cc="http://creativecommons.org/ns#"
   xmlns:rdf="http://www.w3.org/1999/02/22-rdf-syntax-ns#"
   xmlns:svg="http://www.w3.org/2000/svg"
   xmlns="http://www.w3.org/2000/svg"
   xmlns:sodipodi="http://sodipodi.sourceforge.net/DTD/sodipodi-0.dtd"
   xmlns:inkscape="http://www.inkscape.org/namespaces/inkscape"
   width="20"
   height="20"
   id="svg2"
   version="1.1"
   inkscape:version="0.48.2 r9819"
   sodipodi:docname="google+.svg">
  <defs
     id="defs4"><linearGradient
   id="RSSg"
   y2="225.94001"
   x2="225.94001"
   y1="30.06"
   x1="30.06"
   gradientUnits="userSpaceOnUse">
  <stop
     id="stop3063"
     stop-color="#E3702D"
     offset="0.0" />
  <stop
     id="stop3065"
     stop-color="#EA7D31"
     offset="0.1071" />
  <stop
     id="stop3067"
     stop-color="#F69537"
     offset="0.3503" />
  <stop
     id="stop3069"
     stop-color="#FB9E3A"
     offset="0.5" />
  <stop
     id="stop3071"
     stop-color="#EA7C31"
     offset="0.7016" />
  <stop
     id="stop3073"
     stop-color="#DE642B"
     offset="0.8866" />
  <stop
     id="stop3075"
     stop-color="#D95B29"
     offset="1.0" />
</linearGradient>
<clipPath
   id="clipPath3964"
   clipPathUnits="userSpaceOnUse">
  <path
     id="path3966"
     d="M 0,0 274,0 274,223 0,223 0,0 z" />
</clipPath>
<clipPath
   id="clipPath3958"
   clipPathUnits="userSpaceOnUse">
  <path
     id="path3960"
     d="m 0.06,222.178 273.33,0 0,-222.118 -273.33,0 0,222.118 z" />
</clipPath>

	
	

		
		
	<clipPath
   id="clipPath4235"
   clipPathUnits="userSpaceOnUse">
  <path
     id="path4237"
     d="m 0,275.986 530.973,0 L 530.973,0 0,0 0,275.986 z" />
</clipPath>
</defs>
  <sodipodi:namedview
     id="base"
     pagecolor="#ffffff"
     bordercolor="#666666"
     borderopacity="1.0"
     inkscape:pageopacity="0.0"
     inkscape:pageshadow="2"
     inkscape:zoom="14.722222"
     inkscape:cx="4.3179514"
     inkscape:cy="5.7046384"
     inkscape:document-units="px"
     inkscape:current-layer="layer1"
     showgrid="true"
     inkscape:snap-bbox="true"
     inkscape:snap-nodes="false"
     inkscape:window-width="1280"
     inkscape:window-height="693"
     inkscape:window-x="0"
     inkscape:window-y="0"
     inkscape:window-maximized="1"
     inkscape:snap-bbox-midpoints="true">
    <inkscape:grid
       type="xygrid"
       id="grid2985"
       empspacing="8"
       visible="true"
       enabled="true"
       snapvisiblegridlinesonly="true" />
  </sodipodi:namedview>
  <metadata
     id="metadata7">
    <rdf:RDF>
      <cc:Work
         rdf:about="">
        <dc:format>image/svg+xml</dc:format>
        <dc:type
           rdf:resource="http://purl.org/dc/dcmitype/StillImage" />
        <dc:title></dc:title>
      </cc:Work>
    </rdf:RDF>
  </metadata>
  <g
     inkscape:label="Layer 1"
     inkscape:groupmode="layer"
     id="layer1"
     transform="translate(0,-1032.3622)">
    <g
       id="g3952"
       transform="matrix(0.06585446,0,0,-0.06585446,0.99604918,1049.3662)" />
    <g
       id="g4239"
       transform="matrix(0.59795635,0,0,-0.59795635,9.999402,1032.8622)"
       style="fill:#000000;fill-opacity:1">
      <path
         inkscape:connector-curvature="0"
         d="m 0,0 c -8.995,0 -16.289,-7.293 -16.289,-16.291 0,-7.196 4.667,-13.301 11.141,-15.456 0.815,-0.149 1.112,0.354 1.112,0.786 0,0.386 -0.014,1.411 -0.022,2.77 -4.531,-0.984 -5.487,2.184 -5.487,2.184 -0.741,1.882 -1.809,2.382 -1.809,2.382 -1.479,1.011 0.112,0.991 0.112,0.991 1.635,-0.116 2.495,-1.679 2.495,-1.679 1.453,-2.489 3.812,-1.77 4.741,-1.354 0.148,1.053 0.568,1.771 1.034,2.178 -3.617,0.411 -7.42,1.809 -7.42,8.051 0,1.778 0.635,3.232 1.677,4.371 -0.168,0.412 -0.727,2.068 0.159,4.311 0,0 1.368,0.438 4.48,-1.67 1.299,0.362 2.693,0.542 4.078,0.549 1.383,-0.007 2.777,-0.187 4.078,-0.549 3.11,2.108 4.475,1.67 4.475,1.67 0.889,-2.243 0.33,-3.899 0.162,-4.311 1.044,-1.139 1.675,-2.593 1.675,-4.371 0,-6.258 -3.809,-7.635 -7.438,-8.038 0.585,-0.503 1.106,-1.497 1.106,-3.017 0,-2.177 -0.02,-3.934 -0.02,-4.468 0,-0.436 0.293,-0.943 1.12,-0.784 6.467,2.159 11.131,8.26 11.131,15.454 C 16.291,-7.293 8.997,0 0,0"
         style="fill:#000000;fill-opacity:1;fill-rule:evenodd;stroke:none"
         id="path4241" />
    </g>
    <g
       id="g4275"
       transform="matrix(1.25,0,0,-1.25,-15.092935,935.98283)">
      <path
         inkscape:connector-curvature="0"
         d="M 0,0 0,-0.5"
         style="fill:none;stroke:#2e86bf;stroke-width:1;stroke-linecap:round;stroke-linejoin:miter;stroke-miterlimit:10;stroke-opacity:1;stroke-dasharray:none"
         id="path4277" />
    </g>
    <g
       id="g4283"
       transform="matrix(1.25,0,0,-1.25,-15.092935,1107.8493)">
      <path
         inkscape:connector-curvature="0"
         d="M 0,0 0,-0.5"
         style="fill:none;stroke:#2e86bf;stroke-width:1;stroke-linecap:round;stroke-linejoin:miter;stroke-miterlimit:10;stroke-opacity:1;stroke-dasharray:none"
         id="path4285" />
    </g>
  </g>
</svg>
