<?xml version="1.0" encoding="UTF-8" standalone="no"?>
<!-- Created with Inkscape (http://www.inkscape.org/) -->

<svg
   xmlns:dc="http://purl.org/dc/elements/1.1/"
   xmlns:cc="http://creativecommons.org/ns#"
   xmlns:rdf="http://www.w3.org/1999/02/22-rdf-syntax-ns#"
   xmlns:svg="http://www.w3.org/2000/svg"
   xmlns="http://www.w3.org/2000/svg"
   xmlns:sodipodi="http://sodipodi.sourceforge.net/DTD/sodipodi-0.dtd"
   xmlns:inkscape="http://www.inkscape.org/namespaces/inkscape"
   width="20"
   height="20"
   id="svg2"
   version="1.1"
   inkscape:version="0.48.2 r9819"
   sodipodi:docname="twitter.svg">
  <defs
     id="defs4"><linearGradient
   id="RSSg"
   y2="225.94001"
   x2="225.94001"
   y1="30.06"
   x1="30.06"
   gradientUnits="userSpaceOnUse">
  <stop
     id="stop3063"
     stop-color="#E3702D"
     offset="0.0" />
  <stop
     id="stop3065"
     stop-color="#EA7D31"
     offset="0.1071" />
  <stop
     id="stop3067"
     stop-color="#F69537"
     offset="0.3503" />
  <stop
     id="stop3069"
     stop-color="#FB9E3A"
     offset="0.5" />
  <stop
     id="stop3071"
     stop-color="#EA7C31"
     offset="0.7016" />
  <stop
     id="stop3073"
     stop-color="#DE642B"
     offset="0.8866" />
  <stop
     id="stop3075"
     stop-color="#D95B29"
     offset="1.0" />
</linearGradient>
<clipPath
   id="clipPath3964"
   clipPathUnits="userSpaceOnUse">
  <path
     id="path3966"
     d="M 0,0 274,0 274,223 0,223 0,0 z" />
</clipPath>
<clipPath
   id="clipPath3958"
   clipPathUnits="userSpaceOnUse">
  <path
     id="path3960"
     d="m 0.06,222.178 273.33,0 0,-222.118 -273.33,0 0,222.118 z" />
</clipPath>

	
	

		
		
	</defs>
  <sodipodi:namedview
     id="base"
     pagecolor="#ffffff"
     bordercolor="#666666"
     borderopacity="1.0"
     inkscape:pageopacity="0.0"
     inkscape:pageshadow="2"
     inkscape:zoom="10.410183"
     inkscape:cx="24.316503"
     inkscape:cy="6.5858029"
     inkscape:document-units="px"
     inkscape:current-layer="layer1"
     showgrid="true"
     inkscape:snap-bbox="true"
     inkscape:snap-nodes="false"
     inkscape:window-width="1280"
     inkscape:window-height="693"
     inkscape:window-x="0"
     inkscape:window-y="0"
     inkscape:window-maximized="1">
    <inkscape:grid
       type="xygrid"
       id="grid2985"
       empspacing="8"
       visible="true"
       enabled="true"
       snapvisiblegridlinesonly="true" />
  </sodipodi:namedview>
  <metadata
     id="metadata7">
    <rdf:RDF>
      <cc:Work
         rdf:about="">
        <dc:format>image/svg+xml</dc:format>
        <dc:type
           rdf:resource="http://purl.org/dc/dcmitype/StillImage" />
        <dc:title></dc:title>
      </cc:Work>
    </rdf:RDF>
  </metadata>
  <g
     inkscape:label="Layer 1"
     inkscape:groupmode="layer"
     id="layer1"
     transform="translate(0,-1032.3622)">
    <g
       id="g3952"
       transform="matrix(0.06585446,0,0,-0.06585446,0.99604918,1049.3662)" />
    <path
       id="path4145"
       d="m 10.498927,1043.5401 -0.6309654,-0.49 c -0.1921569,-0.1593 -0.4549667,-0.3697 -0.4549667,-0.7548 0,-0.3867 0.2628098,-0.6326 0.4909268,-0.8602 0.7350433,-0.5785 1.4694533,-1.1943 1.4694533,-2.4919 0,-1.3343 -0.839597,-2.0362 -1.24197,-2.3692 h 1.084982 l 1.138842,-0.7156 H 8.9051178 c -0.9466856,0 -2.3109521,0.224 -3.3097561,1.0486 -0.7527861,0.6495 -1.1199911,1.545 -1.1199911,2.3511 0,1.3686 1.050764,2.7558 2.906274,2.7558 0.1752066,0 0.3668882,-0.017 0.5598372,-0.035 -0.086653,0.2108 -0.174256,0.3863 -0.174256,0.6843 0,0.5435 0.2792849,0.8768 0.5254612,1.1926 -0.7884295,0.054 -2.2602594,0.1414 -3.3452409,0.8083 -1.0333384,0.6145 -1.3477914,1.5089 -1.3477914,2.1402 0,1.2993 1.2247032,2.5096 3.7642475,2.5096 3.0114618,0 4.6057458,-1.6663 4.6057458,-3.3159 1.58e-4,-1.212 -0.700034,-1.8086 -1.470721,-2.4578 z m -2.2936849,-2.0179 c -1.5065228,0 -2.1889728,-1.9475 -2.1889728,-3.1227 0,-0.4575 0.086653,-0.9299 0.3846306,-1.2988 0.2808691,-0.3514 0.7700533,-0.5793 1.2267626,-0.5793 1.452345,0 2.2056063,1.965 2.2056063,3.2288 0,0.3162 -0.034851,0.8765 -0.4375411,1.2816 -0.2816611,0.281 -0.7529445,0.4904 -1.1904856,0.4904 z m 0.017267,7.0563 c -1.873411,0 -3.0814806,-0.8962 -3.0814806,-2.1423 0,-1.2457 1.1201496,-1.6671 1.5055722,-1.8067 0.7350437,-0.2473 1.6809373,-0.2818 1.8387182,-0.2818 0.1750481,0 0.2626514,0 0.4020562,0.018 1.3317917,0.9478 1.9098467,1.4202 1.9098467,2.3174 0,1.0866 -0.8933003,1.8958 -2.5747127,1.8958 z"
       inkscape:connector-curvature="0"
       style="fill:#000000;fill-opacity:1" />
    <polygon
       id="polygon4147"
       points="98.393,58.938 98.393,47.863 92.923,47.863 92.923,58.938 81.866,58.938 81.866,64.469 92.923,64.469 92.923,75.612 98.393,75.612 98.393,64.469 109.506,64.469 109.506,58.938 "
       style="fill:#000000;fill-opacity:1"
       transform="matrix(0.15841459,0,0,0.15841459,-0.66597494,1032.1588)" />
  </g>
</svg>
