<?xml version="1.0" encoding="UTF-8" standalone="no"?>
<!-- Created with Inkscape (http://www.inkscape.org/) -->

<svg
   xmlns:dc="http://purl.org/dc/elements/1.1/"
   xmlns:cc="http://creativecommons.org/ns#"
   xmlns:rdf="http://www.w3.org/1999/02/22-rdf-syntax-ns#"
   xmlns:svg="http://www.w3.org/2000/svg"
   xmlns="http://www.w3.org/2000/svg"
   xmlns:sodipodi="http://sodipodi.sourceforge.net/DTD/sodipodi-0.dtd"
   xmlns:inkscape="http://www.inkscape.org/namespaces/inkscape"
   width="20"
   height="20"
   id="svg2"
   version="1.1"
   inkscape:version="0.48.2 r9819"
   sodipodi:docname="rss.svg">
  <defs
     id="defs4">
    <linearGradient
       id="RSSg"
       y2="225.94001"
       x2="225.94001"
       y1="30.06"
       x1="30.06"
       gradientUnits="userSpaceOnUse">
      <stop
         id="stop3063"
         stop-color="#E3702D"
         offset="0.0" />
      <stop
         id="stop3065"
         stop-color="#EA7D31"
         offset="0.1071" />
      <stop
         id="stop3067"
         stop-color="#F69537"
         offset="0.3503" />
      <stop
         id="stop3069"
         stop-color="#FB9E3A"
         offset="0.5" />
      <stop
         id="stop3071"
         stop-color="#EA7C31"
         offset="0.7016" />
      <stop
         id="stop3073"
         stop-color="#DE642B"
         offset="0.8866" />
      <stop
         id="stop3075"
         stop-color="#D95B29"
         offset="1.0" />
    </linearGradient>
    <clipPath
       id="clipPath3964"
       clipPathUnits="userSpaceOnUse">
      <path
         id="path3966"
         d="M 0,0 274,0 274,223 0,223 0,0 z" />
    </clipPath>
    <clipPath
       id="clipPath3958"
       clipPathUnits="userSpaceOnUse">
      <path
         id="path3960"
         d="m 0.06,222.178 273.33,0 0,-222.118 -273.33,0 0,222.118 z" />
    </clipPath>
  </defs>
  <sodipodi:namedview
     id="base"
     pagecolor="#ffffff"
     bordercolor="#666666"
     borderopacity="1.0"
     inkscape:pageopacity="0.0"
     inkscape:pageshadow="2"
     inkscape:zoom="10"
     inkscape:cx="25.149093"
     inkscape:cy="11.694087"
     inkscape:document-units="px"
     inkscape:current-layer="layer1"
     showgrid="true"
     inkscape:snap-bbox="true"
     inkscape:snap-nodes="false"
     inkscape:window-width="1280"
     inkscape:window-height="693"
     inkscape:window-x="0"
     inkscape:window-y="0"
     inkscape:window-maximized="1">
    <inkscape:grid
       type="xygrid"
       id="grid2985"
       empspacing="8"
       visible="true"
       enabled="true"
       snapvisiblegridlinesonly="true" />
  </sodipodi:namedview>
  <metadata
     id="metadata7">
    <rdf:RDF>
      <cc:Work
         rdf:about="">
        <dc:format>image/svg+xml</dc:format>
        <dc:type
           rdf:resource="http://purl.org/dc/dcmitype/StillImage" />
        <dc:title></dc:title>
      </cc:Work>
    </rdf:RDF>
  </metadata>
  <g
     inkscape:label="Layer 1"
     inkscape:groupmode="layer"
     id="layer1"
     transform="translate(0,-1032.3622)">
    <g
       id="g3952"
       transform="matrix(0.06585446,0,0,-0.06585446,0.99604918,1049.3662)" />
    <path
       id="path3968"
       style="fill:#000000;fill-opacity:1;fill-rule:nonzero;stroke:none"
       d="m 6.6582157,1049.3662 c -2.0859401,0 -4.0275271,-0.6115 -5.66216652,-1.6595 0.28896942,0.034 0.58300952,0.052 0.88113272,0.052 1.7305235,0 3.3232136,-0.5905 4.5873558,-1.5812 -1.6163319,-0.03 -2.9804412,-1.0977 -3.4504444,-2.5652 0.2254856,0.043 0.4568982,0.066 0.6948962,0.066 0.3369114,0 0.6632203,-0.045 0.9731972,-0.1296 -1.6898254,-0.3393 -2.9629897,-1.8322 -2.9629897,-3.6218 0,-0.016 0,-0.031 2.634e-4,-0.046 0.4980573,0.2767 1.0675667,0.4428 1.6730984,0.462 -0.9911096,-0.6624 -1.6432663,-1.793 -1.6432663,-3.0744 0,-0.6769 0.1821534,-1.3114 0.5000988,-1.857 1.8217977,2.2347 4.5434967,3.7053 7.6133682,3.8593 -0.062957,-0.2703 -0.095686,-0.5523 -0.095686,-0.8418 0,-2.0398 1.653869,-3.6936 3.693843,-3.6936 1.062364,0 2.022324,0.4486 2.696147,1.1665 0.841357,-0.1657 1.631873,-0.4731 2.345538,-0.8964 -0.275798,0.8625 -0.861442,1.5864 -1.624102,2.0436 0.747184,-0.089 1.459071,-0.2879 2.121501,-0.5817 -0.495226,0.7408 -1.121501,1.3913 -1.843135,1.9121 0.0071,0.1584 0.01067,0.3177 0.01067,0.4779 0,4.881 -3.715245,10.5094 -10.5093183,10.5094"
       inkscape:connector-curvature="0" />
  </g>
</svg>
